# xmcd CD database file
#
# Track frame offsets:
#	151
#	17881
#	33504
#	51264
#	65609
#	81703
#	102663
#	126056
#	149022
#	163663
#	180157
#
# Disc length: 2772 seconds
#
# Revision: 0
# Processed by: cddbd v1.5.2PL0 Copyright (c) Steve Scherf et al.
# Submitted via: CDex 1.50
#
DISCID=a10ad20b
DTITLE=Harp n' Slide - Roadhouse Blues
DYEAR=2001
DGENRE=Blues
TTITLE0=The sky is crying
TTITLE1=Rambling Blues
TTITLE2=Angels Blues
TTITLE3=I can't believe
TTITLE4=Rock me baby
TTITLE5=She is gone
TTITLE6=Little red rooster
TTITLE7=Roadhouse Blues (J.Morrison)
TTITLE8=Scared to speak
TTITLE9=Bad Love
TTITLE10=Fifteen miles
EXTD=YEAR: 2001
EXTT0=
EXTT1=
EXTT2=
EXTT3=
EXTT4=
EXTT5=
EXTT6=
EXTT7=
EXTT8=
EXTT9=
EXTT10=
PLAYORDER=
